<svg xmlns="http://www.w3.org/2000/svg" xmlns:xlink="http://www.w3.org/1999/xlink" version="1.1" id="icon"xml:space="preserve">


<g class="icon" id="Capa_18">
	<g>
		<path d="M31.148,50.266c2.508-1.154,3.608-4.118,2.455-6.629c-1.149-2.511-4.12-3.61-6.626-2.459    c-2.518,1.159-3.615,4.128-2.463,6.636C25.668,50.323,28.633,51.423,31.148,50.266z"/>
		<path d="M50.995,65.965c-0.073-0.811-0.515-1.542-1.199-1.984c-0.684-0.438-1.533-0.541-2.302-0.274l-8.218,2.896l-2.547-8.438    l4.196,0.75c0.125,0.021,0.249,0.032,0.373,0.032c0.565,0,1.114-0.228,1.516-0.639l6.843-7.938l-2.123-2.067l-6.969,6.249    l-5.536-0.988c-0.005-0.01-0.01-0.02-0.016-0.025l5.416-4.597c0.392-0.386,0.616-0.911,0.627-1.461L40.634,36.9l-2.96-0.058    l-0.83,9.693l-6.981,5.838c-1.836,0.895-2.813,2.997-2.205,5.014l3.803,12.604l-0.157,11.104l-3.276,12.572L33.146,95    l3.362-12.904c0.057-0.222,0.086-0.449,0.084-0.678l0.114-8.287c0.037-0.01,0.075-0.013,0.113-0.023    c0.205-0.063,0.393-0.151,0.58-0.24L37.4,72.87l8.63-3.06l0.962,10.672l5.27-0.478L50.995,65.965z"/>
	</g>
	<g>
		<path d="M47.658,11.404c0.776-2.657-0.747-5.428-3.4-6.203c-2.651-0.772-5.426,0.749-6.201,3.408    c-0.771,2.648,0.75,5.428,3.402,6.197C44.113,15.578,46.886,14.055,47.658,11.404z"/>
		<path d="M69.055,22.818l1.988-10.095h-0.007c0.013-0.067,0.037-0.129,0.048-0.197c0.339-2.313-1.26-4.463-3.572-4.801    l-13.32-1.957c-2.311-0.344-4.46,1.26-4.801,3.571c-0.039,0.264-0.044,0.524-0.033,0.782l0.036,8.532l-4.942,8.648l2.473,1.628    l6.29-8.382c0.188-0.286,0.306-0.614,0.338-0.954l0.013-7.137l0.254,7.133c-0.023,0.34-0.131,0.672-0.313,0.963l-5.873,8.303    l0.578,0.435l6.859-8.063c0.33-0.44,0.479-0.99,0.408-1.534l-1.008-5.333l7.508,1.103l-3.734,7.144    c-0.096,0.18-0.166,0.37-0.219,0.566l-3.491,13.559l5.12,1.318l3.419-13.262l3.899-7.456l-3.188,7.181    c0.104,0.261,0.229,0.513,0.414,0.735l7.669,9.271l4.075-3.372L69.055,22.818z"/>
	</g>
</g>
</svg>