
<svg xmlns="http://www.w3.org/2000/svg" xmlns:xlink="http://www.w3.org/1999/xlink" version="1.1" id="Layer_1" x="0px" y="0px" xml:space="preserve">



<path class="icon" d="M48.299,8.696c-0.878-1.903-2.884-3.133-5.113-3.133c-0.329,0-0.656,0.027-0.974,0.081c-0.975,0.165-1.81,0.706-2.355,1.525  c-0.88-0.953-2.112-1.57-3.474-1.62c-0.035-0.001-0.07-0.002-0.106-0.002c-0.035,0-0.07,0.001-0.106,0.002  c-1.362,0.049-2.594,0.667-3.474,1.62c-0.545-0.819-1.38-1.36-2.355-1.525c-0.317-0.054-0.645-0.081-0.974-0.081  c-2.229,0-4.235,1.23-5.113,3.133c-0.298,0.646-1.976,5.139-2.758,10.893c-0.458,3.367-0.527,6.554-0.205,9.474  c0.41,3.725,1.461,7.033,3.122,9.832l0.002,0.003c0.439,0.786,1.158,1.962,2.088,3.099c0.936,1.144,1.895,1.999,2.869,2.56v43.303  c0,3.808,3.097,6.906,6.903,6.906c3.806,0,6.903-3.098,6.903-6.906V44.542c0.97-0.566,1.929-1.425,2.87-2.574  c0.984-1.201,1.729-2.438,2.086-3.068c1.663-2.8,2.715-6.11,3.125-9.837c0.322-2.92,0.253-6.107-0.205-9.474  C50.275,13.835,48.597,9.342,48.299,8.696z M45.611,37.432c-0.122,0.212-2.76,5.003-5.236,5.003H40.26v45.425  c0,2.203-1.782,3.985-3.982,3.985c-2.2,0-3.982-1.782-3.982-3.985V42.435h-0.115c-2.535,0-5.114-4.791-5.236-5.003  c-6.371-10.686-0.421-26.675-0.035-27.513c0.454-0.986,1.504-1.435,2.46-1.435c0.166,0,0.329,0.013,0.485,0.04  c0.769,0.13,0.65,1.334,0.381,2.375c-0.034,0.129-2.058,10.212-1.48,16.876h4.765l0.734-17.144c0-1.172,0.933-2.122,2.023-2.162  c1.09,0.039,2.023,0.989,2.023,2.162l0.733,17.144H43.8c0.578-6.664-1.446-16.746-1.48-16.876c-0.27-1.041-0.388-2.245,0.381-2.375  c0.157-0.027,0.32-0.04,0.486-0.04c0.956,0,2.005,0.449,2.46,1.435C46.033,10.756,51.983,26.746,45.611,37.432z M78.01,8.774  c-1.48-2.158-3.798-3.346-6.526-3.346c-2.929,0-8.238,1.761-10.9,13.543l-0.493,2.072c-3.958,16.323-3.462,37.038-3.439,37.912  c0.044,1.647,1.392,2.96,3.039,2.96h6.064v25.944c0,3.874,3.15,7.025,7.022,7.025c3.872,0,7.022-3.151,7.022-7.025V15.383  C79.801,12.766,79.182,10.481,78.01,8.774z M76.76,87.859c0,2.203-1.782,3.985-3.982,3.985c-2.2,0-3.982-1.782-3.982-3.985V58.875  h-9.105c0,0-0.554-21.002,3.355-37.121l0.499-2.096c1.776-7.879,4.86-11.19,7.938-11.19c3.683,0,5.276,3.097,5.276,6.914V87.859z"/>

</svg>