<svg xmlns="http://www.w3.org/2000/svg" xmlns:xlink="http://www.w3.org/1999/xlink" version="1.1" id="Layer_1" x="0px" y="0px" width="50px" height="50px" viewBox="0 0 50 50" enable-background="new 0 0 50 50" xml:space="preserve">

<path class="icon" fill="#000000" d="M262.138,145.035c-0.312-1.649-1.131-4.44-3.256-7.057c-3.473-4.273-11.354-10.798-39.584-18.076  c-4.014-1.034-8.351-2.381-12.861-3.934c0.078-1.168-0.491-2.334-1.572-2.964c-1.435-0.835-3.251-0.423-4.195,0.904  c-2.928-1.081-5.902-2.228-8.885-3.414c0.074-1.144-0.473-2.29-1.52-2.929c-1.359-0.827-3.088-0.516-4.083,0.66  c-2.778-1.143-5.544-2.307-8.267-3.471c-0.021-1.058-0.565-2.082-1.537-2.668c-1.235-0.745-2.772-0.552-3.789,0.371  c-2.512-1.093-4.967-2.172-7.344-3.222c0.119-1.161-0.404-2.344-1.455-3.013c-1.332-0.848-3.057-0.579-4.076,0.561  c-0.116-0.051-0.233-0.104-0.348-0.154c-2.447-1.086-4.771-2.117-6.955-3.079c0.168-1.198-0.354-2.44-1.442-3.133  c-1.382-0.879-3.183-0.56-4.187,0.686c-1.438-0.615-2.777-1.177-4.015-1.682c0.795-1.153,0.759-2.737-0.188-3.859  c-1.136-1.344-3.146-1.512-4.489-0.377l-2.105,1.779c-0.048-0.025-0.095-0.054-0.146-0.077L97.346,68.716  c-1.498-0.707-3.287-0.147-4.117,1.286C93.15,70.138,85.3,83.717,80.474,92.765c-2.428,4.553-1.88,9.054-1.091,11.859  c-0.955,0.096-1.926,0.15-2.917,0.15c-5.732,0.001-11.563-1.759-17.333-5.229c-7.39-4.444-11.992-9.612-15.353-13.387  c-3.195-3.588-5.505-6.181-8.687-6.181c-4.165,0-6.681,4.257-9.865,12.112c-7.147,17.631-8.985,36.119-9.454,43.805  c-0.071,3.194-0.071,4.218-0.026,6.339c0.254,3.104,0.992,8.567,3.149,14.396c4.418,11.94,12.649,19.623,23.803,22.219l2.379,0.555  c9.815,2.293,11.583,2.706,19.092,2.706c14.104,0,150.532,0.103,155.517,0.106c0.452,0.035,4.048-0.027,4.049-0.027  c5.368,0,15.284-0.555,22.841-5.309c12.422-7.818,18.846-15.483,19.094-22.783C265.813,149.933,263.85,146.777,262.138,145.035z   M41.664,109.7c9.936,5.139,22.862,15.632,30.678,7.815c2.624-2.623,4.01-4.872,4.729-6.382c9.949-0.173,18.196-4.524,24.364-8.756  c1.251,1.955,3.357,4.24,6.858,5.941l-20.1,11.878c-3.246,1.697-8.4,7.533-5.469,17.991c0.241,1.209,1.918,9.163,6.182,19.634  l-19.46-0.001c-3.988-14.957-13.385-21.338-23.291-28.054c-1.138-0.771-2.293-1.555-3.458-2.363  c-10.637-7.377-11.882-17.37-11.935-17.84c-0.059-0.568-0.267-1.086-0.579-1.521C33.267,107.298,37.172,107.377,41.664,109.7z   M129.978,92.043l-5.76,4.868c-1.344,1.135-1.512,3.145-0.377,4.488c0.63,0.746,1.529,1.13,2.435,1.13  c0.726,0,1.456-0.248,2.054-0.753l9.02-7.622c0.781,0.283,1.577,0.587,2.391,0.914c1.091,0.439,2.281,0.934,3.557,1.476  l-3.882,6.103c-0.945,1.484-0.507,3.453,0.977,4.397c0.53,0.337,1.122,0.498,1.707,0.498c1.053,0,2.084-0.521,2.688-1.476  l4.428-6.96c2.188,0.96,4.529,1.999,6.998,3.095l-3.02,4.744c-0.945,1.484-0.507,3.453,0.977,4.397  c0.531,0.337,1.123,0.498,1.707,0.498c1.055,0,2.084-0.521,2.69-1.476l3.534-5.553c2.279,1.007,4.636,2.044,7.047,3.096  l-2.385,3.953c-0.908,1.506-0.424,3.464,1.082,4.373c0.516,0.31,1.082,0.457,1.643,0.457c1.078,0,2.133-0.549,2.73-1.54l2.83-4.692  c2.547,1.09,5.133,2.182,7.736,3.258l-1.783,2.923c-0.916,1.502-0.441,3.462,1.062,4.378c0.517,0.315,1.089,0.466,1.653,0.466  c1.074,0,2.123-0.543,2.723-1.527l2.322-3.808c2.893,1.155,5.781,2.277,8.639,3.342l-1.156,1.988  c-0.886,1.52-0.371,3.469,1.148,4.354c0.505,0.294,1.055,0.434,1.602,0.434c1.096,0,2.162-0.566,2.756-1.583l1.742-2.995  c2.705,0.942,5.355,1.814,7.926,2.601c-0.476,0.81-1.162,1.891-2.164,3.313c-2.264,3.218-7.446,2.388-8.146,2.258  c-3.675-1.108-74.695-22.525-87.611-26.342c-4.163-1.229-6.078-3.445-6.926-4.917c0.282-0.218,0.56-0.433,0.827-0.64  c1.508-1.168,2.811-2.178,3.731-2.739c3.1-1.895,7.034-3.831,12.709-3.831C125.761,91.392,127.801,91.608,129.978,92.043z   M221.494,169.667c-11.15,0.951-23.312,0.855-23.477,0.854c-11.021-0.082-26.176-1.76-40.548-3.787l32.633-33.538  c5.601,1.688,9.147,2.758,9.308,2.806c0.073,0.022,0.147,0.042,0.221,0.059c0.154,0.034,1.631,0.354,3.672,0.354  c3.322,0,8.138-0.847,11.162-5.146c0.468-0.664,0.882-1.274,1.252-1.84c9.541,1.869,22.322,6.358,23.09,11.248  c0.334,2.137-0.832,3.521-4.248,6.93c-3.742,3.732-8.866,8.844-11.863,18.393C222.322,167.185,221.917,168.414,221.494,169.667z   M116.289,110.995c3.622,1.082,8.52,2.55,14.135,4.235l-36.619,37.635c-3.521-9.234-4.834-15.932-4.85-16.016  c-0.019-0.094-0.04-0.187-0.066-0.277c-2.23-7.805,1.693-10.402,2.293-10.747c0.082-0.038,0.08-0.041,0.172-0.096L116.289,110.995z   M142.614,118.895c4.003,1.204,8.142,2.449,12.279,3.694l-36.796,37.577c-0.571-0.111-1.084-0.215-1.523-0.305  c-4.076-0.834-8.433-1.33-11.998-1.623l38.164-39.222L142.614,118.895z M167.287,126.321c3.641,1.096,7.156,2.155,10.444,3.146  l-34.215,35.164c-4.238-0.676-8.229-1.346-11.816-1.969L167.287,126.321z M96.915,166.314c0.651,0.016,10.099,0.262,17.956,1.868  c3.971,0.812,12.58,2.437,23.176,4.183H51.825c-4.019,0-5.989-0.252-7.029-0.898c-0.988-0.614-1.796-2.021-3.387-4.889  c-0.047-0.084-0.097-0.177-0.146-0.264H96.915z M253.939,141.996c1.814,2.232,2.025,4.812,2.025,4.812  c0.027,0.461,0.154,0.904,0.365,1.305l-3.252,8.042c-1.683,3.923-5.652,7.326-9.982,10.022c-2.84,0.562-6.756,1.318-11.881,2.266  c-0.879,0.162-1.803,0.312-2.76,0.449c0.104-0.328,0.215-0.663,0.315-0.986c2.528-8.054,6.829-12.343,10.284-15.789  c3.554-3.546,6.91-6.895,6.043-12.428c-0.303-1.923-1.21-3.733-2.709-5.426C247.945,136.793,251.81,139.375,253.939,141.996z   M86.095,95.762c3.521-6.602,8.688-15.672,11.187-20.031l20.857,9.847c-4.373,0.87-7.733,2.621-10.332,4.21  c-1.221,0.745-2.652,1.855-4.31,3.14c-4.401,3.409-10.429,8.077-17.864,10.404C85.105,101.728,84.517,98.722,86.095,95.762z   M25.25,114.002c1.361,4.584,4.883,12.441,13.817,18.638c1.185,0.821,2.358,1.616,3.515,2.4c9.17,6.218,16.657,11.295,20.243,22.781  h-26.86c-4.49-6.385-10.587-13.931-13.975-18.04c-0.002-0.082-0.003-0.139-0.003-0.167C22.001,138.944,22.281,127.777,25.25,114.002  z"/>

</svg>